<svg xmlns="http://www.w3.org/2000/svg" height="48" viewBox="0 96 960 960" width="48">
  <path fill="white" d="M480 936q-30 0-59-11t-51-30q-47 40-98 64.5T228 1004q-66 0-112.5-46.5T69 845q0-52 24.5-102T158 644l45-45 27 30-43 40q-47 49-71 93.5T91 844q0 46 33 79t79 33q66 0 128.5-23.5T420 868l30-30q20-22 50-35t60-13q34 0 63.5 13t51.5 35l30 30q49 41 114.5 64.5T827 956q47 0 79.5-32.5T940 844q0-46-24-90.5T845 660l-43-40 28-30 44 45q57 57 81.5 110T891 845q0 65-46.5 111.5T733 1003q-56 0-107-24.5T528 914q-21 19-51 30t-59 11Zm-145-240q14 0 24.5-10t10.5-25V576q0-14-10.5-24.5T335 541h-84q-14 0-24.5 10.5T216 576v85q0 15 10.5 25t24.5 10h84Zm369-24q12 0 21-8.5t9-21.5q0-12-9-21t-21-9q-12 0-20.5 9t-8.5 21q0 13 8.5 21.5T704 672Zm78-78q12 0 21-8.5t9-21.5q0-12-9-21t-21-9q-12 0-21 9t-9 21q0 13 9 21.5t21 8.5Zm-136-72q13 0 21.5-8.5T676 492q0-13-8.5-21.5T646 462q-13 0-21.5 8.5T616 492q0 13 8.5 21.5T646 522Zm78-78q13 0 21.5-8.5T754 414q0-13-8.5-21.5T724 384q-13 0-21.5 8.5T694 414q0 13 8.5 21.5T724 444Z"/>
</svg>
